# xmcd CD database file
#
# Track frame offsets:
#	150
#	14632
#	27662
#	38276
#	52388
#	62841
#	74610
#	91143
#	104617
#	115069
#	129494
#	146903
#	157201
#	176539
#	189848
#	202786
#	214648
#	226075
#	240555
#
# Disc length: 3402 seconds
#
# Revision: 2
# Processed by: cddbd v1.5PL3 Copyright (c) Steve Scherf et al.
# Submitted via: CDex 1.50
#
DISCID=100d4813
DTITLE=Fesaci - Fesaci 2000
DYEAR=1900
DGENRE=
TTITLE0=Dialog 2000
TTITLE1=Vis co ti slusi
TTITLE2=Absolutni slepice
TTITLE3=Presny cas
TTITLE4=Hotel Zvon
TTITLE5=Doktore pomozte
TTITLE6=Zvony
TTITLE7=Prodavac
TTITLE8=Rychla jizda, diskoteka, dzus
TTITLE9=Malerova pisen
TTITLE10=Pani ma se ma
TTITLE11=Sta pisen
TTITLE12=Co dest by nesmyl
TTITLE13=Neber si ma mila brzdare
TTITLE14=Kovbojove a klauni
TTITLE15=Nez nam dojde kyslik
TTITLE16=Vanocni
TTITLE17=Mam te rad kdyz spis
TTITLE18=Tata se vratil domu
EXTD=
EXTT0=
EXTT1=
EXTT2=
EXTT3=
EXTT4=
EXTT5=
EXTT6=
EXTT7=
EXTT8=
EXTT9=
EXTT10=
EXTT11=
EXTT12=
EXTT13=
EXTT14=
EXTT15=
EXTT16=
EXTT17=
EXTT18=
PLAYORDER=
